<svg xmlns="http://www.w3.org/2000/svg" width="282.211" height="282.193" viewBox="0 0 345.211 345.193">
  <g id="Group_12" data-name="Group 12" transform="translate(-444.811 -243.59)">
    <g id="Group_11" data-name="Group 11">
      <path id="Path_21" data-name="Path 21" d="M552.793,290.688A42.289,42.289,0,0,0,510.5,332.977v.708h42.289Z" fill="#1b1464" stroke="#fff" stroke-miterlimit="10" stroke-width="1"/>
      <path id="Path_22" data-name="Path 22" d="M510.15,395.761a42.289,42.289,0,0,0,42.289,42.289h.708V395.761Z" fill="#1b1464" stroke="#fff" stroke-miterlimit="10" stroke-width="1"/>
      <path id="Path_23" data-name="Path 23" d="M510.15,501.846a42.289,42.289,0,0,0,42.289,42.289h.708V501.846Z" fill="#1b1464" stroke="#fff" stroke-miterlimit="10" stroke-width="1"/>
      <path id="Path_24" data-name="Path 24" d="M725.446,437.7a42.288,42.288,0,0,0-42.289-42.289h0v43h42.289Z" fill="#1b1464" stroke="#fff" stroke-miterlimit="10" stroke-width="1"/>
      <path id="Path_25" data-name="Path 25" d="M682.8,501.846v42.289h.708A42.29,42.29,0,0,0,725.8,501.846h-43Z" fill="#1b1464" stroke="#fff" stroke-miterlimit="10" stroke-width="1"/>
      <path id="Path_26" data-name="Path 26" d="M725.446,332.344a42.288,42.288,0,0,0-42.289-42.289h0v43h42.289Z" fill="#1b1464" stroke="#fff" stroke-miterlimit="10" stroke-width="1"/>
      <rect id="Rectangle_3" data-name="Rectangle 3" width="41.437" height="60.502" transform="translate(510.494 334.162)" fill="#1b1464" stroke="#fff" stroke-miterlimit="10" stroke-width="1"/>
      <rect id="Rectangle_4" data-name="Rectangle 4" width="128.577" height="42.898" transform="translate(553.391 289.959)" fill="#1b1464" stroke="#fff" stroke-miterlimit="10" stroke-width="1"/>
      <rect id="Rectangle_5" data-name="Rectangle 5" width="42.424" height="61.263" transform="translate(683.089 439.499)" fill="#1b1464" stroke="#fff" stroke-miterlimit="10" stroke-width="1"/>
      <rect id="Rectangle_6" data-name="Rectangle 6" width="128.86" height="42.704" transform="translate(553.812 395.761)" fill="#1b1464" stroke="#fff" stroke-miterlimit="10" stroke-width="1"/>
      <rect id="Rectangle_7" data-name="Rectangle 7" width="128.157" height="41.882" transform="translate(553.654 502.049)" fill="#1b1464" stroke="#fff" stroke-miterlimit="10" stroke-width="1"/>
    </g>
    <path id="Path_27" data-name="Path 27" d="M790.022,334.017V332.3H790V243.59H444.811V588.783H790V545.409h.018v-1.722H790V501.9h.018v-1.722H790V439.713h.018v-1.722H790v-41.75h.018v-1.722H790v-60.5ZM786.57,332.3H726.951V290.544H786.57Zm-338.325,1.722h60.57v60.5h-60.57Zm62.292,60.5v-60.5H552.09v60.5Zm41.553,1.722v41.75H510.537v-41.75Zm-103.845,0h60.57v41.75h-60.57Zm0,43.472h60.57v60.469h-60.57Zm62.292,0H552.09v60.469H510.537Zm43.275,0H681.968v60.469H553.812Zm0-1.722v-41.75H681.968v41.75Zm0-43.472v-60.5H681.968v60.5Zm0-62.224V290.544H681.968V332.3Zm-1.722,0H510.537V290.544H552.09Zm-43.275,0h-60.57V290.544h60.57ZM448.245,501.9h60.57v41.783h-60.57Zm62.292,0H552.09v41.783H510.537Zm43.275,0H681.968v41.783H553.812Zm129.878,0h41.539v41.783H683.69Zm0-1.722V439.713h41.539v60.469Zm0-62.191v-41.75h41.539v41.75Zm0-43.472v-60.5h41.539v60.5Zm0-62.224V290.544h41.539V332.3Zm102.88-85.236v41.763H726.951V247.059Zm-61.341,0v41.763H683.69V247.059Zm-43.261,0v41.763H553.812V247.059Zm-129.878,0v41.763H510.537V247.059Zm-43.275,0v41.763h-60.57V247.059Zm-60.57,338.254v-39.9h60.57v39.9Zm62.292,0v-39.9H552.09v39.9Zm43.275,0v-39.9H681.968v39.9Zm129.878,0v-39.9h41.539v39.9Zm102.88,0H726.951v-39.9H786.57Zm0-41.626H726.951V501.9H786.57Zm0-43.505H726.951V439.713H786.57Zm-59.619-62.191v-41.75H786.57v41.75Zm59.619-43.472H726.951v-60.5H786.57Z" fill="#fff"/>
    <path id="Path_28" data-name="Path 28" d="M617.416,247.042A169.144,169.144,0,1,0,786.561,416.186,169.144,169.144,0,0,0,617.416,247.042Zm0,336.464a167.319,167.319,0,1,1,167.32-167.32A167.319,167.319,0,0,1,617.416,583.506Z" fill="#fff"/>
  </g>
</svg>
